<svg id="svg" version="1.1" xmlns="http://www.w3.org/2000/svg" xmlns:xlink="http://www.w3.org/1999/xlink" width="400" height="400" viewBox="0, 0, 400,400"><g id="svgg"><path id="path0" d="M191.281 76.877 C 186.366 81.502,182.288 85.176,176.000 90.648 C 173.030 93.233,169.428 96.439,167.995 97.774 C 166.562 99.108,163.592 101.748,161.395 103.641 C 159.198 105.533,156.844 107.603,156.164 108.241 L 154.929 109.401 154.647 128.600 C 154.323 150.725,154.115 149.278,158.112 152.766 C 159.701 154.152,164.150 158.294,168.000 161.971 C 171.850 165.648,177.880 171.325,181.400 174.587 C 190.351 182.882,189.510 180.481,189.665 198.186 L 189.794 212.973 188.720 213.575 C 187.733 214.129,187.474 214.105,185.523 213.274 C 184.355 212.777,179.260 211.014,174.200 209.356 C 169.140 207.699,164.100 206.018,163.000 205.620 C 161.900 205.223,158.570 204.142,155.600 203.218 C 145.936 200.213,148.067 202.977,136.001 177.800 C 134.736 175.160,131.891 169.297,129.678 164.772 L 125.654 156.543 122.927 155.291 C 121.427 154.603,119.300 153.844,118.200 153.606 C 117.100 153.367,115.300 152.833,114.200 152.419 C 111.086 151.248,106.037 149.625,103.436 148.959 C 102.136 148.627,100.593 148.107,100.008 147.804 C 99.422 147.501,97.512 146.888,95.763 146.442 C 94.013 145.995,91.968 145.323,91.218 144.949 C 88.945 143.815,86.152 143.738,84.756 144.769 C 84.104 145.252,82.821 145.910,81.905 146.234 C 80.989 146.557,79.952 147.082,79.600 147.400 C 79.248 147.718,78.245 148.231,77.372 148.539 C 76.498 148.848,75.087 149.572,74.236 150.150 C 73.385 150.727,72.450 151.200,72.158 151.200 C 71.866 151.200,70.776 151.740,69.736 152.400 C 68.695 153.060,67.591 153.600,67.283 153.600 C 66.975 153.600,66.246 153.928,65.662 154.328 C 65.078 154.728,59.215 157.735,52.633 161.010 C 37.772 168.404,37.457 168.647,39.134 171.400 C 40.126 173.029,45.583 183.533,56.174 204.200 C 63.526 218.547,63.861 218.967,68.600 219.821 C 69.480 219.980,71.100 220.467,72.200 220.904 C 73.300 221.341,75.370 222.021,76.800 222.415 C 78.230 222.809,80.480 223.503,81.800 223.957 C 84.387 224.848,86.499 225.529,91.200 226.987 C 92.850 227.498,95.231 228.296,96.490 228.758 C 99.746 229.955,102.338 229.863,105.128 228.450 C 107.802 227.096,109.631 226.249,118.200 222.397 C 127.122 218.385,129.530 217.275,131.600 216.215 C 132.590 215.709,133.848 215.157,134.395 214.990 C 134.942 214.823,136.047 214.251,136.851 213.719 C 139.006 212.292,142.000 212.097,145.000 213.188 C 146.320 213.668,149.920 214.871,153.000 215.862 C 156.080 216.853,160.040 218.174,161.800 218.799 C 167.158 220.700,177.246 224.004,180.000 224.759 C 183.203 225.637,185.048 226.568,185.588 227.578 C 185.864 228.093,186.000 244.002,186.000 275.745 C 186.000 327.341,185.869 324.350,188.129 324.431 C 196.857 324.745,205.800 324.415,206.277 323.762 C 206.720 323.157,207.177 242.621,206.808 230.158 C 206.733 227.642,207.953 226.401,211.510 225.373 C 212.770 225.009,215.240 224.207,217.000 223.592 C 220.111 222.503,222.185 221.820,228.400 219.835 C 230.050 219.309,232.210 218.587,233.200 218.232 C 252.305 211.375,253.823 211.167,260.000 214.560 C 260.550 214.862,262.260 215.682,263.800 216.383 C 266.459 217.593,267.349 218.031,269.900 219.383 C 270.505 219.704,271.540 220.211,272.200 220.510 C 272.860 220.808,273.760 221.258,274.200 221.508 C 274.640 221.759,275.893 222.377,276.984 222.882 C 279.301 223.954,279.119 223.864,285.552 227.100 C 291.581 230.133,293.128 230.296,297.864 228.400 C 299.512 227.740,301.162 227.200,301.530 227.201 C 301.899 227.201,303.820 226.684,305.800 226.051 C 309.336 224.922,315.681 222.960,322.400 220.918 C 330.499 218.457,329.653 219.289,335.421 208.107 C 337.778 203.538,341.194 196.920,343.011 193.400 C 344.828 189.880,347.746 184.210,349.496 180.800 C 351.245 177.390,353.064 173.970,353.537 173.200 C 355.105 170.648,354.572 169.171,351.585 167.790 C 350.823 167.437,349.030 166.452,347.600 165.601 C 344.738 163.898,338.797 160.470,335.467 158.600 C 334.291 157.940,332.895 157.108,332.365 156.751 C 331.456 156.140,326.772 153.469,322.830 151.315 C 321.857 150.784,320.618 150.000,320.076 149.574 C 319.535 149.148,318.877 148.800,318.615 148.800 C 318.352 148.800,317.341 148.290,316.369 147.666 C 306.599 141.405,307.515 141.528,297.000 145.057 C 295.460 145.574,292.940 146.340,291.400 146.760 C 289.860 147.180,287.700 147.818,286.600 148.178 C 285.500 148.537,282.800 149.378,280.600 150.047 C 271.924 152.681,268.972 153.715,268.331 154.344 C 267.634 155.028,263.708 162.783,261.013 168.800 C 260.668 169.570,260.126 170.650,259.809 171.200 C 259.491 171.750,257.536 175.710,255.463 180.000 C 245.466 200.696,244.942 201.600,242.944 201.600 C 242.617 201.600,238.896 202.750,234.675 204.155 C 230.454 205.561,222.860 208.065,217.800 209.720 C 212.740 211.376,208.060 213.015,207.400 213.363 C 205.667 214.276,204.130 214.174,203.440 213.100 C 202.947 212.333,202.444 190.943,202.758 184.080 C 202.787 183.436,207.450 178.413,218.300 167.337 C 226.825 158.635,234.099 151.039,234.465 150.457 C 235.325 149.089,236.041 113.231,235.247 111.312 C 234.993 110.700,226.480 102.009,216.329 91.999 C 194.361 70.337,196.719 71.761,191.281 76.877 M197.000 91.314 C 198.091 91.976,220.660 114.280,221.659 115.682 C 222.986 117.547,222.811 143.590,221.458 145.498 C 220.019 147.528,204.003 163.600,203.419 163.600 C 202.077 163.600,202.002 162.593,201.700 140.720 C 201.344 114.881,202.111 117.600,195.180 117.600 C 189.679 117.600,188.824 117.884,188.779 119.729 C 188.719 122.164,188.904 152.451,189.004 156.600 C 189.175 163.663,188.724 163.874,183.674 159.100 C 181.754 157.285,177.532 153.404,174.292 150.475 C 166.749 143.656,167.478 145.916,167.569 129.656 C 167.663 112.947,166.449 115.925,176.800 106.999 C 179.550 104.627,184.467 100.237,187.727 97.243 C 193.399 92.034,194.916 90.828,195.800 90.828 C 196.020 90.828,196.560 91.047,197.000 91.314 M308.938 158.234 C 310.732 159.243,313.460 160.793,315.000 161.677 C 316.540 162.562,318.520 163.687,319.400 164.178 C 338.219 174.665,338.440 174.858,336.140 178.800 C 335.562 179.790,333.449 183.794,331.445 187.697 C 320.191 209.611,321.364 207.947,316.166 209.354 C 312.723 210.285,303.940 212.939,297.472 215.002 C 293.124 216.389,293.153 216.395,285.473 212.635 C 281.693 210.784,277.583 208.822,276.339 208.274 C 271.837 206.292,273.085 204.266,279.600 202.980 C 280.370 202.828,281.540 202.426,282.200 202.086 C 282.860 201.747,285.020 200.980,287.000 200.381 C 288.980 199.783,291.140 199.102,291.800 198.867 C 296.226 197.292,299.343 196.254,301.600 195.603 C 308.585 193.587,318.207 190.042,318.698 189.304 C 319.136 188.643,319.093 188.179,318.421 186.360 C 317.983 185.172,317.331 183.147,316.972 181.860 C 315.918 178.078,314.453 177.227,311.594 178.736 C 310.827 179.141,309.300 179.692,308.200 179.960 C 307.100 180.228,304.760 180.965,303.000 181.598 C 299.569 182.832,297.210 183.621,293.400 184.810 C 290.291 185.780,285.284 187.440,282.000 188.591 C 275.939 190.713,272.880 191.712,270.991 192.184 C 269.886 192.460,268.409 192.981,267.711 193.343 C 263.385 195.580,262.928 193.898,266.118 187.477 C 267.560 184.575,270.529 178.510,272.716 174.000 C 277.780 163.560,275.635 165.070,292.600 160.005 C 295.680 159.085,299.370 157.908,300.800 157.389 C 304.444 156.065,305.226 156.146,308.938 158.234 M96.363 160.253 C 100.233 161.492,105.558 163.202,108.196 164.053 C 110.834 164.904,113.178 165.600,113.403 165.600 C 115.010 165.600,116.829 167.772,119.008 172.294 C 120.256 174.882,121.539 177.450,121.860 178.000 C 122.181 178.550,122.715 179.630,123.047 180.400 C 123.379 181.170,124.810 184.140,126.228 187.000 C 129.778 194.164,129.531 195.007,124.449 193.084 C 120.999 191.778,111.317 188.536,108.000 187.576 C 106.570 187.162,103.330 186.098,100.800 185.211 C 98.270 184.324,95.030 183.247,93.600 182.818 C 92.170 182.388,88.930 181.312,86.400 180.427 C 81.154 178.590,80.763 178.535,79.879 179.513 C 79.145 180.324,76.400 187.947,76.400 189.174 C 76.400 190.391,80.213 192.231,85.600 193.616 C 86.590 193.870,87.584 194.229,87.809 194.412 C 88.034 194.596,89.564 195.118,91.209 195.572 C 92.854 196.025,95.100 196.739,96.200 197.158 C 97.300 197.576,100.360 198.585,103.000 199.399 C 105.640 200.213,108.880 201.294,110.200 201.800 C 111.520 202.307,114.183 203.197,116.117 203.779 C 121.557 205.415,121.856 207.626,116.830 209.050 C 115.603 209.398,114.240 209.902,113.800 210.171 C 111.750 211.425,100.846 216.000,99.908 216.000 C 99.327 216.000,98.345 215.804,97.726 215.564 C 96.055 214.918,77.194 208.942,75.800 208.617 C 73.548 208.093,71.986 206.783,70.833 204.451 C 69.525 201.806,65.004 193.056,60.576 184.600 C 55.641 175.175,55.886 175.749,56.281 174.510 C 56.698 173.203,85.987 158.052,88.163 158.018 C 88.803 158.008,92.493 159.014,96.363 160.253 " stroke="none" fill="#ffffff" fill-rule="evenodd"></path><path id="path1" d="M0.000 200.000 L 0.000 400.000 200.000 400.000 L 400.000 400.000 400.000 200.000 L 400.000 0.000 200.000 0.000 L 0.000 0.000 0.000 200.000 M216.329 91.999 C 226.480 102.009,234.993 110.700,235.247 111.312 C 236.041 113.231,235.325 149.089,234.465 150.457 C 234.099 151.039,226.825 158.635,218.300 167.337 C 207.450 178.413,202.787 183.436,202.758 184.080 C 202.444 190.943,202.947 212.333,203.440 213.100 C 204.130 214.174,205.667 214.276,207.400 213.363 C 208.060 213.015,212.740 211.376,217.800 209.720 C 222.860 208.065,230.454 205.561,234.675 204.155 C 238.896 202.750,242.617 201.600,242.944 201.600 C 244.942 201.600,245.466 200.696,255.463 180.000 C 257.536 175.710,259.491 171.750,259.809 171.200 C 260.126 170.650,260.668 169.570,261.013 168.800 C 263.708 162.783,267.634 155.028,268.331 154.344 C 268.972 153.715,271.924 152.681,280.600 150.047 C 282.800 149.378,285.500 148.537,286.600 148.178 C 287.700 147.818,289.860 147.180,291.400 146.760 C 292.940 146.340,295.460 145.574,297.000 145.057 C 307.515 141.528,306.599 141.405,316.369 147.666 C 317.341 148.290,318.352 148.800,318.615 148.800 C 318.877 148.800,319.535 149.148,320.076 149.574 C 320.618 150.000,321.857 150.784,322.830 151.315 C 326.772 153.469,331.456 156.140,332.365 156.751 C 332.895 157.108,334.291 157.940,335.467 158.600 C 338.797 160.470,344.738 163.898,347.600 165.601 C 349.030 166.452,350.823 167.437,351.585 167.790 C 354.572 169.171,355.105 170.648,353.537 173.200 C 353.064 173.970,351.245 177.390,349.496 180.800 C 347.746 184.210,344.828 189.880,343.011 193.400 C 341.194 196.920,337.778 203.538,335.421 208.107 C 329.653 219.289,330.499 218.457,322.400 220.918 C 315.681 222.960,309.336 224.922,305.800 226.051 C 303.820 226.684,301.899 227.201,301.530 227.201 C 301.162 227.200,299.512 227.740,297.864 228.400 C 293.128 230.296,291.581 230.133,285.552 227.100 C 279.119 223.864,279.301 223.954,276.984 222.882 C 275.893 222.377,274.640 221.759,274.200 221.508 C 273.760 221.258,272.860 220.808,272.200 220.510 C 271.540 220.211,270.505 219.704,269.900 219.383 C 267.349 218.031,266.459 217.593,263.800 216.383 C 262.260 215.682,260.550 214.862,260.000 214.560 C 253.823 211.167,252.305 211.375,233.200 218.232 C 232.210 218.587,230.050 219.309,228.400 219.835 C 222.185 221.820,220.111 222.503,217.000 223.592 C 215.240 224.207,212.770 225.009,211.510 225.373 C 207.953 226.401,206.733 227.642,206.808 230.158 C 207.177 242.621,206.720 323.157,206.277 323.762 C 205.800 324.415,196.857 324.745,188.129 324.431 C 185.869 324.350,186.000 327.341,186.000 275.745 C 186.000 244.002,185.864 228.093,185.588 227.578 C 185.048 226.568,183.203 225.637,180.000 224.759 C 177.246 224.004,167.158 220.700,161.800 218.799 C 160.040 218.174,156.080 216.853,153.000 215.862 C 149.920 214.871,146.320 213.668,145.000 213.188 C 142.000 212.097,139.006 212.292,136.851 213.719 C 136.047 214.251,134.942 214.823,134.395 214.990 C 133.848 215.157,132.590 215.709,131.600 216.215 C 129.530 217.275,127.122 218.385,118.200 222.397 C 109.631 226.249,107.802 227.096,105.128 228.450 C 102.338 229.863,99.746 229.955,96.490 228.758 C 95.231 228.296,92.850 227.498,91.200 226.987 C 86.499 225.529,84.387 224.848,81.800 223.957 C 80.480 223.503,78.230 222.809,76.800 222.415 C 75.370 222.021,73.300 221.341,72.200 220.904 C 71.100 220.467,69.480 219.980,68.600 219.821 C 63.861 218.967,63.526 218.547,56.174 204.200 C 45.583 183.533,40.126 173.029,39.134 171.400 C 37.457 168.647,37.772 168.404,52.633 161.010 C 59.215 157.735,65.078 154.728,65.662 154.328 C 66.246 153.928,66.975 153.600,67.283 153.600 C 67.591 153.600,68.695 153.060,69.736 152.400 C 70.776 151.740,71.866 151.200,72.158 151.200 C 72.450 151.200,73.385 150.727,74.236 150.150 C 75.087 149.572,76.498 148.848,77.372 148.539 C 78.245 148.231,79.248 147.718,79.600 147.400 C 79.952 147.082,80.989 146.557,81.905 146.234 C 82.821 145.910,84.104 145.252,84.756 144.769 C 86.152 143.738,88.945 143.815,91.218 144.949 C 91.968 145.323,94.013 145.995,95.763 146.442 C 97.512 146.888,99.422 147.501,100.008 147.804 C 100.593 148.107,102.136 148.627,103.436 148.959 C 106.037 149.625,111.086 151.248,114.200 152.419 C 115.300 152.833,117.100 153.367,118.200 153.606 C 119.300 153.844,121.427 154.603,122.927 155.291 L 125.654 156.543 129.678 164.772 C 131.891 169.297,134.736 175.160,136.001 177.800 C 148.067 202.977,145.936 200.213,155.600 203.218 C 158.570 204.142,161.900 205.223,163.000 205.620 C 164.100 206.018,169.140 207.699,174.200 209.356 C 179.260 211.014,184.355 212.777,185.523 213.274 C 187.474 214.105,187.733 214.129,188.720 213.575 L 189.794 212.973 189.665 198.186 C 189.510 180.481,190.351 182.882,181.400 174.587 C 177.880 171.325,171.850 165.648,168.000 161.971 C 164.150 158.294,159.701 154.152,158.112 152.766 C 154.115 149.278,154.323 150.725,154.647 128.600 L 154.929 109.401 156.164 108.241 C 156.844 107.603,159.198 105.533,161.395 103.641 C 163.592 101.748,166.562 99.108,167.995 97.774 C 169.428 96.439,173.030 93.233,176.000 90.648 C 182.288 85.176,186.366 81.502,191.281 76.877 C 196.719 71.761,194.361 70.337,216.329 91.999 M194.527 91.314 C 194.047 91.581,190.987 94.250,187.727 97.243 C 184.467 100.237,179.550 104.627,176.800 106.999 C 166.449 115.925,167.663 112.947,167.569 129.656 C 167.478 145.916,166.749 143.656,174.292 150.475 C 177.532 153.404,181.754 157.285,183.674 159.100 C 188.724 163.874,189.175 163.663,189.004 156.600 C 188.904 152.451,188.719 122.164,188.779 119.729 C 188.824 117.884,189.679 117.600,195.180 117.600 C 202.111 117.600,201.344 114.881,201.700 140.720 C 202.002 162.593,202.077 163.600,203.419 163.600 C 204.003 163.600,220.019 147.528,221.458 145.498 C 222.811 143.590,222.986 117.547,221.659 115.682 C 220.660 114.280,198.091 91.976,197.000 91.314 C 196.560 91.047,196.020 90.828,195.800 90.828 C 195.580 90.828,195.007 91.047,194.527 91.314 M300.800 157.389 C 299.370 157.908,295.680 159.085,292.600 160.005 C 275.635 165.070,277.780 163.560,272.716 174.000 C 270.529 178.510,267.560 184.575,266.118 187.477 C 262.928 193.898,263.385 195.580,267.711 193.343 C 268.409 192.981,269.886 192.460,270.991 192.184 C 272.880 191.712,275.939 190.713,282.000 188.591 C 285.284 187.440,290.291 185.780,293.400 184.810 C 297.210 183.621,299.569 182.832,303.000 181.598 C 304.760 180.965,307.100 180.228,308.200 179.960 C 309.300 179.692,310.827 179.141,311.594 178.736 C 314.453 177.227,315.918 178.078,316.972 181.860 C 317.331 183.147,317.983 185.172,318.421 186.360 C 319.093 188.179,319.136 188.643,318.698 189.304 C 318.207 190.042,308.585 193.587,301.600 195.603 C 299.343 196.254,296.226 197.292,291.800 198.867 C 291.140 199.102,288.980 199.783,287.000 200.381 C 285.020 200.980,282.860 201.747,282.200 202.086 C 281.540 202.426,280.370 202.828,279.600 202.980 C 273.085 204.266,271.837 206.292,276.339 208.274 C 277.583 208.822,281.693 210.784,285.473 212.635 C 293.153 216.395,293.124 216.389,297.472 215.002 C 303.940 212.939,312.723 210.285,316.166 209.354 C 320.351 208.221,320.375 208.204,322.250 205.118 C 323.695 202.739,324.604 201.017,331.445 187.697 C 333.449 183.794,335.562 179.790,336.140 178.800 C 338.440 174.858,338.219 174.665,319.400 164.178 C 318.520 163.687,316.540 162.562,315.000 161.677 C 304.601 155.703,305.060 155.841,300.800 157.389 M71.817 165.718 C 58.542 172.435,56.590 173.539,56.281 174.510 C 55.886 175.749,55.641 175.175,60.576 184.600 C 65.004 193.056,69.525 201.806,70.833 204.451 C 71.986 206.783,73.548 208.093,75.800 208.617 C 77.194 208.942,96.055 214.918,97.726 215.564 C 98.345 215.804,99.327 216.000,99.908 216.000 C 100.846 216.000,111.750 211.425,113.800 210.171 C 114.240 209.902,115.603 209.398,116.830 209.050 C 121.856 207.626,121.557 205.415,116.117 203.779 C 114.183 203.197,111.520 202.307,110.200 201.800 C 108.880 201.294,105.640 200.213,103.000 199.399 C 100.360 198.585,97.300 197.576,96.200 197.158 C 95.100 196.739,92.854 196.025,91.209 195.572 C 89.564 195.118,88.034 194.596,87.809 194.412 C 87.584 194.229,86.590 193.870,85.600 193.616 C 80.213 192.231,76.400 190.391,76.400 189.174 C 76.400 187.947,79.145 180.324,79.879 179.513 C 80.763 178.535,81.154 178.590,86.400 180.427 C 88.930 181.312,92.170 182.388,93.600 182.818 C 95.030 183.247,98.270 184.324,100.800 185.211 C 103.330 186.098,106.570 187.162,108.000 187.576 C 111.317 188.536,120.999 191.778,124.449 193.084 C 129.531 195.007,129.778 194.164,126.228 187.000 C 124.810 184.140,123.379 181.170,123.047 180.400 C 122.715 179.630,122.181 178.550,121.860 178.000 C 121.539 177.450,120.256 174.882,119.008 172.294 C 116.829 167.772,115.010 165.600,113.403 165.600 C 113.178 165.600,110.834 164.904,108.196 164.053 C 92.652 159.038,89.211 158.002,88.163 158.018 C 87.473 158.029,80.821 161.163,71.817 165.718 " stroke="none" fill="#34c236" fill-rule="evenodd"></path></g></svg>